<svg id="Layer_1" data-name="Layer 1" xmlns="http://www.w3.org/2000/svg" viewBox="0 0 185.54 100.59"><path d="M178.21,96H178a22,22,0,0,0-31.89-27.35A30.62,30.62,0,0,0,87.2,80.33a31.27,31.27,0,0,0,.25,3.77l-.25,0a20.54,20.54,0,1,0,0,41.07h91a14.56,14.56,0,0,0,0-29.12Z" transform="translate(-7.23 -49.71)" style="fill:#bbd6f1"/><path d="M141.72,115.18l-.22,0a26.51,26.51,0,0,0-38.44-33A36.92,36.92,0,0,0,32,96.25a37.79,37.79,0,0,0,.3,4.55l-.3,0a24.76,24.76,0,1,0,0,49.51H141.72a17.56,17.56,0,1,0,0-35.11Z" transform="translate(-7.23 -49.71)" style="fill:#fff"/></svg>