<svg id="Layer_1" data-name="Layer 1" xmlns="http://www.w3.org/2000/svg" viewBox="0 0 168.14 176.82"><path d="M164.83,73.07c-.09,0-.17,0-.25,0a29.31,29.31,0,0,0-42.51-36.47A40.82,40.82,0,0,0,43.48,52.14a41.65,41.65,0,0,0,.34,5l-.34,0a27.38,27.38,0,1,0,0,54.75H164.83a19.42,19.42,0,0,0,0-38.83Z" transform="translate(-16.1 -11.31)" style="fill:#bbd6f1"/><polygon points="74.91 112.32 64.4 144.33 78.89 144.33 69.5 176.82 103.74 130.95 86.06 130.95 92.75 112.32 74.91 112.32" style="fill:#ffdc7c"/></svg>