<svg id="Layer_1" data-name="Layer 1" xmlns="http://www.w3.org/2000/svg" viewBox="0 0 151.54 170.3"><path d="M158.27,73.41l-.22,0a26.42,26.42,0,0,0-38.31-32.87,36.8,36.8,0,0,0-70.84,14,37.73,37.73,0,0,0,.31,4.53l-.31,0a24.68,24.68,0,0,0,0,49.35H158.27a17.5,17.5,0,0,0,0-35Z" transform="translate(-24.23 -17.75)" style="fill:#bbd6f1"/><path d="M57.05,151.52a12.43,12.43,0,0,1-22.4-10.76c3-6.19,22.2-17.5,22.2-17.5S60,145.34,57.05,151.52Z" transform="translate(-24.23 -17.75)" style="fill:#bbd6f1"/><path d="M165.3,151.52a12.42,12.42,0,0,1-22.39-10.76c3-6.19,22.2-17.5,22.2-17.5S168.28,145.34,165.3,151.52Z" transform="translate(-24.23 -17.75)" style="fill:#bbd6f1"/><polygon points="65.96 101.23 54.71 135.51 70.23 135.51 60.16 170.3 96.83 121.19 77.9 121.19 85.06 101.23 65.96 101.23" style="fill:#ffdc7c"/></svg>