<svg id="Layer_1" data-name="Layer 1" xmlns="http://www.w3.org/2000/svg" viewBox="0 0 78.78 180.84"><path d="M115.15,114.33v-90a15,15,0,0,0-30,0v90.05a39.39,39.39,0,1,0,30,0Z" transform="translate(-60.78 -9.3)" style="fill:#fff"/><path d="M100.17,183a32.19,32.19,0,0,1-12.24-62l4.45-1.83V24.28a7.79,7.79,0,1,1,15.58,0v94.87l4.45,1.83a32.19,32.19,0,0,1-12.24,62Z" transform="translate(-60.78 -9.3)" style="fill:#bbd6f1"/><path d="M112.41,121,108,119.15V38.07H92.38v81.08L87.93,121a32.2,32.2,0,1,0,24.48,0Z" transform="translate(-60.78 -9.3)" style="fill:#e84231"/><path d="M100.18,168.07c-24.3,0-5.72-29.44-5.72-29.44v6.82l5.72-13.63,5.7,13.63v-6.82S124.47,168.07,100.18,168.07Z" transform="translate(-60.78 -9.3)" style="fill:#fff"/></svg>