<svg id="Layer_1" data-name="Layer 1" xmlns="http://www.w3.org/2000/svg" viewBox="0 0 78.78 180.84"><path d="M115.15,114.33v-90a15,15,0,0,0-30,0v90.05a39.39,39.39,0,1,0,30,0Z" transform="translate(-60.78 -9.3)" style="fill:#fff"/><path d="M100.17,183a32.19,32.19,0,0,1-12.24-62l4.45-1.83V24.28a7.79,7.79,0,1,1,15.58,0v94.87l4.45,1.83a32.19,32.19,0,0,1-12.24,62Z" transform="translate(-60.78 -9.3)" style="fill:#bbd6f1"/><path d="M112.41,121,108,119.15V104.81H92.38v14.34L87.93,121a32.2,32.2,0,1,0,24.48,0Z" transform="translate(-60.78 -9.3)" style="fill:#3b97d3"/><path d="M100.17,167.11h0a2.8,2.8,0,0,1-2.79-2.79V138.59a2.8,2.8,0,0,1,2.79-2.79h0a2.8,2.8,0,0,1,2.79,2.79v25.73A2.8,2.8,0,0,1,100.17,167.11Z" transform="translate(-60.78 -9.3)" style="fill:#fff"/><path d="M87.24,160.28h0A2.81,2.81,0,0,1,88,156.4l21.24-14.5a2.79,2.79,0,0,1,3.88.73h0a2.8,2.8,0,0,1-.73,3.88L91.12,161A2.79,2.79,0,0,1,87.24,160.28Z" transform="translate(-60.78 -9.3)" style="fill:#fff"/><path d="M113.1,160.28h0a2.8,2.8,0,0,0-.73-3.88L91.12,141.9a2.79,2.79,0,0,0-3.88.73h0a2.81,2.81,0,0,0,.74,3.88L109.22,161A2.79,2.79,0,0,0,113.1,160.28Z" transform="translate(-60.78 -9.3)" style="fill:#fff"/></svg>