<svg id="Layer_1" data-name="Layer 1" xmlns="http://www.w3.org/2000/svg" viewBox="0 0 180.96 97.22"><path d="M155.34,111.08l-.24,0A28.33,28.33,0,0,0,114,75.86a39.46,39.46,0,0,0-76,15,41,41,0,0,0,.33,4.86l-.33,0a26.46,26.46,0,0,0,0,52.92H155.34a18.77,18.77,0,1,0,0-37.53Z" transform="translate(-11.59 -51.39)" style="fill:#fff"/><path d="M140.75,57.9h-60a3.26,3.26,0,0,1-3.25-3.26h0a3.26,3.26,0,0,1,3.25-3.25h60A3.26,3.26,0,0,1,144,54.64h0A3.26,3.26,0,0,1,140.75,57.9Z" transform="translate(-11.59 -51.39)" style="fill:#fff"/><path d="M189.3,57.9H154.5a3.26,3.26,0,0,1-3.26-3.26h0a3.26,3.26,0,0,1,3.26-3.25h34.8a3.26,3.26,0,0,1,3.25,3.25h0A3.26,3.26,0,0,1,189.3,57.9Z" transform="translate(-11.59 -51.39)" style="fill:#fff"/><path d="M165.38,78H129.5a3.24,3.24,0,0,1-3.25-3.25h0a3.24,3.24,0,0,1,3.25-3.25h35.88a3.25,3.25,0,0,1,3.26,3.25h0A3.25,3.25,0,0,1,165.38,78Z" transform="translate(-11.59 -51.39)" style="fill:#fff"/><path d="M189.12,78H179.6a3.24,3.24,0,0,1-3.25-3.25h0a3.24,3.24,0,0,1,3.25-3.25h9.52a3.25,3.25,0,0,1,3.25,3.25h0A3.25,3.25,0,0,1,189.12,78Z" transform="translate(-11.59 -51.39)" style="fill:#fff"/><path d="M189.12,117.37H129.5a3.25,3.25,0,0,1-3.25-3.26h0a3.24,3.24,0,0,1,3.25-3.25h59.62a3.25,3.25,0,0,1,3.25,3.25h0A3.26,3.26,0,0,1,189.12,117.37Z" transform="translate(-11.59 -51.39)" style="fill:#fff"/><path d="M189.12,148.61H129.5a3.25,3.25,0,0,1-3.25-3.25h0a3.25,3.25,0,0,1,3.25-3.26h59.62a3.26,3.26,0,0,1,3.25,3.26h0A3.26,3.26,0,0,1,189.12,148.61Z" transform="translate(-11.59 -51.39)" style="fill:#fff"/></svg>