<svg id="Layer_1" data-name="Layer 1" xmlns="http://www.w3.org/2000/svg" viewBox="0 0 168.14 156.24"><path d="M164.83,82.39c-.09,0-.17,0-.25,0A29.31,29.31,0,0,0,122.07,46,40.82,40.82,0,0,0,43.48,61.46a41.65,41.65,0,0,0,.34,5l-.34,0a27.38,27.38,0,1,0,0,54.75H164.83a19.42,19.42,0,0,0,0-38.83Z" transform="translate(-16.1 -20.63)" style="fill:#fff"/><path d="M69.91,169.06a13.78,13.78,0,0,1-24.85-11.94c3.3-6.87,24.63-19.42,24.63-19.42S73.2,162.2,69.91,169.06Z" transform="translate(-16.1 -20.63)" style="fill:#bbd6f1"/><path d="M104.18,169.06a13.78,13.78,0,0,1-24.85-11.94C82.63,150.25,104,137.7,104,137.7S107.48,162.2,104.18,169.06Z" transform="translate(-16.1 -20.63)" style="fill:#bbd6f1"/><path d="M138.94,169.06a13.78,13.78,0,0,1-24.85-11.94c3.3-6.87,24.63-19.42,24.63-19.42S142.24,162.2,138.94,169.06Z" transform="translate(-16.1 -20.63)" style="fill:#bbd6f1"/></svg>