<svg id="Layer_1" data-name="Layer 1" xmlns="http://www.w3.org/2000/svg" viewBox="0 0 162.54 175.38"><path d="M162.5,72.11l-.24,0a28.34,28.34,0,0,0-41.09-35.26,39.47,39.47,0,0,0-76,15,40.88,40.88,0,0,0,.33,4.86l-.33,0a26.47,26.47,0,0,0,0,52.93H162.5a18.77,18.77,0,1,0,0-37.53Z" transform="translate(-18.73 -12.4)" style="fill:#fff"/><circle cx="44.96" cy="123.04" r="5.79" style="fill:#fff"/><circle cx="81.27" cy="123.04" r="5.79" style="fill:#fff"/><circle cx="81.27" cy="169.58" r="5.79" style="fill:#fff"/><circle cx="61.96" cy="145.83" r="5.79" style="fill:#fff"/><path d="M125.49,158.23a5.8,5.8,0,1,1-5.79-5.79A5.8,5.8,0,0,1,125.49,158.23Z" transform="translate(-18.73 -12.4)" style="fill:#fff"/><circle cx="117.58" cy="123.04" r="5.79" style="fill:#fff"/></svg>