<svg id="Layer_1" data-name="Layer 1" xmlns="http://www.w3.org/2000/svg" viewBox="0 0 177.12 129.71"><circle cx="69.69" cy="91.29" r="22.71" transform="translate(-45.2 110.17) rotate(-80.71)" style="fill:#ffdc7c"/><path d="M69.69,60h0A2.72,2.72,0,0,1,67,57.23V37.87a2.72,2.72,0,0,1,2.73-2.72h0a2.72,2.72,0,0,1,2.72,2.72V57.23A2.72,2.72,0,0,1,69.69,60Z" transform="translate(-13.55 -35.15)" style="fill:#ffdc7c"/><path d="M69.69,147.43h0A2.72,2.72,0,0,1,67,144.71V125.34a2.72,2.72,0,0,1,2.73-2.72h0a2.72,2.72,0,0,1,2.72,2.72v19.37A2.72,2.72,0,0,1,69.69,147.43Z" transform="translate(-13.55 -35.15)" style="fill:#ffdc7c"/><path d="M91.84,69.13h0a2.73,2.73,0,0,1,0-3.85l13.69-13.69a2.73,2.73,0,0,1,3.85,0h0a2.71,2.71,0,0,1,0,3.85L95.69,69.13A2.73,2.73,0,0,1,91.84,69.13Z" transform="translate(-13.55 -35.15)" style="fill:#ffdc7c"/><path d="M30,131h0a2.73,2.73,0,0,1,0-3.85l13.69-13.69a2.73,2.73,0,0,1,3.85,0h0a2.73,2.73,0,0,1,0,3.85L33.84,131A2.71,2.71,0,0,1,30,131Z" transform="translate(-13.55 -35.15)" style="fill:#ffdc7c"/><path d="M101,91.29h0a2.72,2.72,0,0,1,2.72-2.73h19.37a2.72,2.72,0,0,1,2.72,2.73h0A2.72,2.72,0,0,1,123.11,94H103.74A2.72,2.72,0,0,1,101,91.29Z" transform="translate(-13.55 -35.15)" style="fill:#ffdc7c"/><path d="M13.55,91.29h0a2.72,2.72,0,0,1,2.72-2.73H35.63a2.72,2.72,0,0,1,2.72,2.73h0A2.72,2.72,0,0,1,35.63,94H16.27A2.72,2.72,0,0,1,13.55,91.29Z" transform="translate(-13.55 -35.15)" style="fill:#ffdc7c"/><path d="M91.84,113.44h0a2.73,2.73,0,0,1,3.85,0l13.69,13.69a2.71,2.71,0,0,1,0,3.85h0a2.71,2.71,0,0,1-3.85,0L91.84,117.29A2.73,2.73,0,0,1,91.84,113.44Z" transform="translate(-13.55 -35.15)" style="fill:#ffdc7c"/><path d="M30,51.59h0a2.73,2.73,0,0,1,3.85,0L47.53,65.28a2.73,2.73,0,0,1,0,3.85h0a2.73,2.73,0,0,1-3.85,0L30,55.44A2.73,2.73,0,0,1,30,51.59Z" transform="translate(-13.55 -35.15)" style="fill:#ffdc7c"/><path d="M173.72,131l-.21,0a25.58,25.58,0,0,0-37.09-31.83,35.62,35.62,0,0,0-68.57,13.54,37.34,37.34,0,0,0,.29,4.39l-.29,0a23.89,23.89,0,1,0,0,47.77H173.72a16.94,16.94,0,0,0,0-33.88Z" transform="translate(-13.55 -35.15)" style="fill:#fff"/></svg>